<svg xmlns="http://www.w3.org/2000/svg" width="2070" height="1790" viewBox="0 0 2070 1790" font-family="Helvetica,Arial,sans-serif"><rect width="100%" height="100%" fill="#fff"/><text x="1035.0" y="42" text-anchor="middle" font-size="30" font-weight="700" fill="#1b2a41">CODELITESA S.A. – SUPERMERCADOS MI CASERITA</text><text x="1035.0" y="74" text-anchor="middle" font-size="19" font-weight="600" fill="#555">ORGANIGRAMA FUNCIONAL PROPUESTO (con nombres y funciones)</text><rect x="835.0" y="100" width="400" height="76" rx="12" fill="#fde9e9" stroke="#b84a4a" stroke-width="2.2"/><text x="1035.0" y="136.0" text-anchor="middle" font-weight="700" font-size="17" fill="#1b2a41">JUNTA GENERAL DE ACCIONISTAS</text><text x="1035.0" y="155.0" text-anchor="middle" font-size="13" fill="#333" font-weight="400">Familia propietaria – define estrategia y nombra la auditoría</text><rect x="1415.0" y="100" width="440" height="76" rx="12" fill="#eef" stroke="#555" stroke-width="2.2" stroke-dasharray="7 5"/><text x="1635.0" y="127.0" text-anchor="middle" font-weight="700" font-size="16" fill="#1b2a41">AUDITORÍA EXTERNA / CONTROL INTERNO</text><text x="1635.0" y="145.0" text-anchor="middle" font-size="13" fill="#b06a00" font-weight="700">Por designar (control interno) – reporta a la Junta</text><text x="1635.0" y="162.0" text-anchor="middle" font-size="13" fill="#333" font-weight="400">Verifica cajas, inventarios y procedimientos</text><path d="M1235.0,138 L1415.0,138" stroke="#555" stroke-width="2" fill="none" stroke-dasharray="7 5"/><path d="M1035.0,176 L1035.0,212" stroke="#555" stroke-width="2" fill="none"/><rect x="835.0" y="212" width="400" height="80" rx="12" fill="#e4f3e4" stroke="#3c8c3c" stroke-width="2.2"/><text x="1035.0" y="241.5" text-anchor="middle" font-weight="700" font-size="17" fill="#1b2a41">PRESIDENCIA</text><text x="1035.0" y="260.5" text-anchor="middle" font-size="13" fill="#333" font-weight="400">Martha Hidalgo</text><text x="1035.0" y="277.5" text-anchor="middle" font-size="13" fill="#333" font-weight="400">Estrategia, supervisión y relación con la Junta</text><path d="M1035.0,292 L1035.0,328" stroke="#555" stroke-width="2" fill="none"/><rect x="835.0" y="328" width="400" height="90" rx="12" fill="#e6eefb" stroke="#3b6cb7" stroke-width="2.2"/><text x="1035.0" y="354.0" text-anchor="middle" font-weight="700" font-size="17" fill="#1b2a41">GERENCIA GENERAL</text><text x="1035.0" y="373.0" text-anchor="middle" font-size="13" fill="#333" font-weight="400">Luis Teneda</text><text x="1035.0" y="390.0" text-anchor="middle" font-size="13" fill="#333" font-weight="400">Dirección de la operación, planificación,</text><text x="1035.0" y="407.0" text-anchor="middle" font-size="13" fill="#333" font-weight="400">control y representación legal</text><path d="M1035.0,418 L1035.0,444" stroke="#555" stroke-width="2" fill="none"/><path d="M176.0,444 L176.0,470" stroke="#555" stroke-width="2" fill="none"/><rect x="40" y="470" width="272" height="120" rx="12" fill="#fff4e0" stroke="#e0a030" stroke-width="2.2"/><text x="176.0" y="510.5" text-anchor="middle" font-weight="700" font-size="16" fill="#1b2a41">SUPERMERCADOS MI CASERITA</text><text x="176.0" y="528.5" text-anchor="middle" font-size="13" fill="#333" font-weight="400">Mauro Carvajal</text><text x="176.0" y="545.5" text-anchor="middle" font-size="13" fill="#333" font-weight="400">Jefe de Supermercados</text><text x="176.0" y="562.5" text-anchor="middle" font-size="13" fill="#333" font-weight="400">13 locales: ventas y servicio</text><path d="M176.0,590 L176.0,610" stroke="#555" stroke-width="2" fill="none"/><rect x="50" y="610" width="252" height="84" rx="12" fill="#fff4e0" stroke="#e0a030" stroke-width="2.2"/><text x="176.0" y="641.25" text-anchor="middle" font-weight="700" font-size="14.5" fill="#1b2a41">Supervisoras</text><text x="176.0" y="657.75" text-anchor="middle" font-size="12" fill="#333" font-weight="400">Daniela Vidal / Vanessa Yanchapanta</text><text x="176.0" y="673.75" text-anchor="middle" font-size="12" fill="#333" font-weight="400">Visitas y control de los locales</text><path d="M176.0,694 L176.0,714" stroke="#555" stroke-width="2" fill="none"/><rect x="50" y="714" width="252" height="84" rx="12" fill="#fff4e0" stroke="#e0a030" stroke-width="2.2"/><text x="176.0" y="745.25" text-anchor="middle" font-weight="700" font-size="14.5" fill="#1b2a41">Administradores de local (13)</text><text x="176.0" y="761.75" text-anchor="middle" font-size="12" fill="#333" font-weight="400">Apertura, caja, personal e</text><text x="176.0" y="777.75" text-anchor="middle" font-size="12" fill="#333" font-weight="400">inventario de cada local</text><path d="M176.0,798 L176.0,818" stroke="#555" stroke-width="2" fill="none"/><rect x="50" y="818" width="252" height="84" rx="12" fill="#fff7d6" stroke="#d08a00" stroke-width="2.2" stroke-dasharray="7 5"/><text x="176.0" y="849.25" text-anchor="middle" font-weight="700" font-size="14.5" fill="#1b2a41">Asistentes administrativos (13)</text><text x="176.0" y="865.75" text-anchor="middle" font-size="12" fill="#333" font-weight="400">Uno por local</text><text x="176.0" y="881.75" text-anchor="middle" font-size="12" fill="#333" font-weight="400">Apoyo administrativo al administrador</text><path d="M176.0,902 L176.0,922" stroke="#555" stroke-width="2" fill="none"/><rect x="50" y="922" width="252" height="84" rx="12" fill="#fff4e0" stroke="#e0a030" stroke-width="2.2"/><text x="176.0" y="953.25" text-anchor="middle" font-weight="700" font-size="14.5" fill="#1b2a41">Percheros, cajeros y bodega</text><text x="176.0" y="969.75" text-anchor="middle" font-size="12" fill="#333" font-weight="400">Atención al cliente, reposición</text><text x="176.0" y="985.75" text-anchor="middle" font-size="12" fill="#333" font-weight="400">y manejo de caja</text><path d="M462.0,444 L462.0,470" stroke="#555" stroke-width="2" fill="none"/><rect x="326" y="470" width="272" height="120" rx="12" fill="#e4f3e4" stroke="#3c8c3c" stroke-width="2.2"/><text x="462.0" y="510.5" text-anchor="middle" font-weight="700" font-size="16" fill="#1b2a41">COMERCIAL Y COMPRAS</text><text x="462.0" y="528.5" text-anchor="middle" font-size="13" fill="#333" font-weight="400">Luis David Teneda</text><text x="462.0" y="545.5" text-anchor="middle" font-size="13" fill="#333" font-weight="400">Jefe comercial y de compras</text><text x="462.0" y="562.5" text-anchor="middle" font-size="13" fill="#333" font-weight="400">Compras, precios y abastecimiento</text><path d="M462.0,590 L462.0,610" stroke="#555" stroke-width="2" fill="none"/><rect x="336" y="610" width="252" height="84" rx="12" fill="#e4f3e4" stroke="#3c8c3c" stroke-width="2.2"/><text x="462.0" y="641.25" text-anchor="middle" font-weight="700" font-size="14.5" fill="#1b2a41">Compras y proveedores</text><text x="462.0" y="657.75" text-anchor="middle" font-size="12" fill="#333" font-weight="400">Mauro Carvajal</text><text x="462.0" y="673.75" text-anchor="middle" font-size="12" fill="#333" font-weight="400">Negociación, compras y precios</text><path d="M462.0,694 L462.0,714" stroke="#555" stroke-width="2" fill="none"/><rect x="336" y="714" width="252" height="84" rx="12" fill="#e4f3e4" stroke="#3c8c3c" stroke-width="2.2"/><text x="462.0" y="745.25" text-anchor="middle" font-weight="700" font-size="14.5" fill="#1b2a41">Compras y proveedores</text><text x="462.0" y="761.75" text-anchor="middle" font-size="12" fill="#333" font-weight="400">Verónica Teneda</text><text x="462.0" y="777.75" text-anchor="middle" font-size="12" fill="#333" font-weight="400">Negociación, compras y precios</text><path d="M462.0,798 L462.0,818" stroke="#555" stroke-width="2" fill="none"/><rect x="336" y="818" width="252" height="84" rx="12" fill="#e4f3e4" stroke="#3c8c3c" stroke-width="2.2"/><text x="462.0" y="849.25" text-anchor="middle" font-weight="700" font-size="14.5" fill="#1b2a41">Marketing y publicidad</text><text x="462.0" y="865.75" text-anchor="middle" font-size="12" fill="#333" font-weight="400">Verónica Teneda (supervisa)</text><text x="462.0" y="881.75" text-anchor="middle" font-size="12" fill="#333" font-weight="400">Contrata proveedor externo de marketing</text><path d="M462.0,902 L462.0,922" stroke="#555" stroke-width="2" fill="none"/><rect x="336" y="922" width="252" height="84" rx="12" fill="#e4f3e4" stroke="#3c8c3c" stroke-width="2.2"/><text x="462.0" y="953.25" text-anchor="middle" font-weight="700" font-size="14.5" fill="#1b2a41">Logística y bodega central</text><text x="462.0" y="969.75" text-anchor="middle" font-size="12" fill="#333" font-weight="400">Jorge Leime</text><text x="462.0" y="985.75" text-anchor="middle" font-size="12" fill="#333" font-weight="400">Abastecimiento a los 13 locales</text><path d="M462.0,1006 L462.0,1026" stroke="#555" stroke-width="2" fill="none"/><rect x="336" y="1026" width="252" height="84" rx="12" fill="#e4f3e4" stroke="#3c8c3c" stroke-width="2.2"/><text x="462.0" y="1049.25" text-anchor="middle" font-weight="700" font-size="14.5" fill="#1b2a41">Choferes de logística (4)</text><text x="462.0" y="1065.75" text-anchor="middle" font-size="12" fill="#333" font-weight="400">Marco Rosero, Raúl Naula,</text><text x="462.0" y="1081.75" text-anchor="middle" font-size="12" fill="#333" font-weight="400">Henry Quispe, César Canchina</text><text x="462.0" y="1097.75" text-anchor="middle" font-size="12" fill="#333" font-weight="400">Transporte a los 13 locales</text><path d="M748.0,444 L748.0,470" stroke="#555" stroke-width="2" fill="none"/><rect x="612" y="470" width="272" height="120" rx="12" fill="#e6eefb" stroke="#3b6cb7" stroke-width="2.2"/><text x="748.0" y="510.5" text-anchor="middle" font-weight="700" font-size="16" fill="#1b2a41">DISTRIBUCIÓN</text><text x="748.0" y="528.5" text-anchor="middle" font-size="13" fill="#333" font-weight="400">Luis David Teneda</text><text x="748.0" y="545.5" text-anchor="middle" font-size="13" fill="#333" font-weight="400">Jefe de Agencia Pingüino y</text><text x="748.0" y="562.5" text-anchor="middle" font-size="13" fill="#333" font-weight="400">línea Unilever</text><path d="M748.0,590 L748.0,610" stroke="#555" stroke-width="2" fill="none"/><rect x="622" y="610" width="252" height="84" rx="12" fill="#e6eefb" stroke="#3b6cb7" stroke-width="2.2"/><text x="748.0" y="641.25" text-anchor="middle" font-weight="700" font-size="14.5" fill="#1b2a41">Agencia Pingüino y línea Unilever</text><text x="748.0" y="657.75" text-anchor="middle" font-size="12" fill="#333" font-weight="400">Administrador: Juan Carlos Vallejo</text><text x="748.0" y="673.75" text-anchor="middle" font-size="12" fill="#333" font-weight="400">Rutas, cartera y cadena de frío</text><path d="M748.0,694 L748.0,714" stroke="#555" stroke-width="2" fill="none"/><rect x="622" y="714" width="252" height="84" rx="12" fill="#fff7d6" stroke="#d08a00" stroke-width="2.2" stroke-dasharray="7 5"/><text x="748.0" y="745.25" text-anchor="middle" font-weight="700" font-size="14.5" fill="#1b2a41">Vendedores (4)</text><text x="748.0" y="761.75" text-anchor="middle" font-size="12" fill="#b06a00" font-weight="700">Por designar</text><text x="748.0" y="777.75" text-anchor="middle" font-size="12" fill="#333" font-weight="400">Venta en ruta y atención a clientes</text><path d="M748.0,798 L748.0,818" stroke="#555" stroke-width="2" fill="none"/><rect x="622" y="818" width="252" height="84" rx="12" fill="#e6eefb" stroke="#3b6cb7" stroke-width="2.2"/><text x="748.0" y="849.25" text-anchor="middle" font-weight="700" font-size="14.5" fill="#1b2a41">Choferes (2)</text><text x="748.0" y="865.75" text-anchor="middle" font-size="12" fill="#333" font-weight="400">Luis Rodríguez, Edison Tarisa</text><text x="748.0" y="881.75" text-anchor="middle" font-size="12" fill="#333" font-weight="400">Transporte y entrega de pedidos</text><path d="M748.0,902 L748.0,922" stroke="#555" stroke-width="2" fill="none"/><rect x="622" y="922" width="252" height="84" rx="12" fill="#fff7d6" stroke="#d08a00" stroke-width="2.2" stroke-dasharray="7 5"/><text x="748.0" y="953.25" text-anchor="middle" font-weight="700" font-size="14.5" fill="#1b2a41">Despachador (1)</text><text x="748.0" y="969.75" text-anchor="middle" font-size="12" fill="#b06a00" font-weight="700">Por designar</text><text x="748.0" y="985.75" text-anchor="middle" font-size="12" fill="#333" font-weight="400">Preparación y despacho de pedidos</text><path d="M748.0,1006 L748.0,1026" stroke="#555" stroke-width="2" fill="none"/><rect x="622" y="1026" width="252" height="84" rx="12" fill="#fff7d6" stroke="#d08a00" stroke-width="2.2" stroke-dasharray="7 5"/><text x="748.0" y="1057.25" text-anchor="middle" font-weight="700" font-size="14.5" fill="#1b2a41">Técnico de bodega</text><text x="748.0" y="1073.75" text-anchor="middle" font-size="12" fill="#b06a00" font-weight="700">Por designar</text><text x="748.0" y="1089.75" text-anchor="middle" font-size="12" fill="#333" font-weight="400">Reparación de fríos</text><path d="M1034.0,444 L1034.0,470" stroke="#555" stroke-width="2" fill="none"/><rect x="898" y="470" width="272" height="120" rx="12" fill="#fff7d6" stroke="#d08a00" stroke-width="2.2" stroke-dasharray="7 5"/><text x="1034.0" y="510.5" text-anchor="middle" font-weight="700" font-size="16" fill="#1b2a41">AGROINDUSTRIA</text><text x="1034.0" y="528.5" text-anchor="middle" font-size="13" fill="#b06a00" font-weight="700">Por designar</text><text x="1034.0" y="545.5" text-anchor="middle" font-size="13" fill="#333" font-weight="400">Distribución, pesado y empaque</text><text x="1034.0" y="562.5" text-anchor="middle" font-size="13" fill="#333" font-weight="400">para los locales</text><path d="M1034.0,590 L1034.0,610" stroke="#555" stroke-width="2" fill="none"/><rect x="908" y="610" width="252" height="84" rx="12" fill="#f1e8fa" stroke="#7a4ab0" stroke-width="2.2"/><text x="1034.0" y="641.25" text-anchor="middle" font-weight="700" font-size="14.5" fill="#1b2a41">Distribución avícola</text><text x="1034.0" y="657.75" text-anchor="middle" font-size="12" fill="#333" font-weight="400">Alexis Chiluiza y Javier (*)</text><text x="1034.0" y="673.75" text-anchor="middle" font-size="12" fill="#333" font-weight="400">Distribución del pollo</text><path d="M1034.0,694 L1034.0,714" stroke="#555" stroke-width="2" fill="none"/><rect x="908" y="714" width="252" height="84" rx="12" fill="#f1e8fa" stroke="#7a4ab0" stroke-width="2.2"/><text x="1034.0" y="745.25" text-anchor="middle" font-weight="700" font-size="14.5" fill="#1b2a41">Chofer de distribución de pollo</text><text x="1034.0" y="761.75" text-anchor="middle" font-size="12" fill="#333" font-weight="400">José Haro</text><text x="1034.0" y="777.75" text-anchor="middle" font-size="12" fill="#333" font-weight="400">Transporte y entrega del pollo</text><path d="M1034.0,798 L1034.0,818" stroke="#555" stroke-width="2" fill="none"/><rect x="908" y="818" width="252" height="84" rx="12" fill="#f1e8fa" stroke="#7a4ab0" stroke-width="2.2"/><text x="1034.0" y="849.25" text-anchor="middle" font-weight="700" font-size="14.5" fill="#1b2a41">Distribución de verduras</text><text x="1034.0" y="865.75" text-anchor="middle" font-size="12" fill="#333" font-weight="400">Rocío Gamboa y Luis Padilla (*)</text><text x="1034.0" y="881.75" text-anchor="middle" font-size="12" fill="#333" font-weight="400">Abastecimiento de verduras</text><path d="M1034.0,902 L1034.0,922" stroke="#555" stroke-width="2" fill="none"/><rect x="908" y="922" width="252" height="84" rx="12" fill="#f1e8fa" stroke="#7a4ab0" stroke-width="2.2"/><text x="1034.0" y="945.25" text-anchor="middle" font-weight="700" font-size="14.5" fill="#1b2a41">Distribución de pesados</text><text x="1034.0" y="961.75" text-anchor="middle" font-size="12" fill="#333" font-weight="400">Alexis Chiluiza y Javier (*)</text><text x="1034.0" y="977.75" text-anchor="middle" font-size="12" fill="#333" font-weight="400">Pesan avena, fideos, arroz a granel</text><text x="1034.0" y="993.75" text-anchor="middle" font-size="12" fill="#333" font-weight="400">y empacan en varios gramajes</text><path d="M1320.0,444 L1320.0,470" stroke="#555" stroke-width="2" fill="none"/><rect x="1184" y="470" width="272" height="120" rx="12" fill="#eaf1dc" stroke="#6f8f2a" stroke-width="2.2"/><text x="1320.0" y="519.0" text-anchor="middle" font-weight="700" font-size="16" fill="#1b2a41">PRODUCCIÓN</text><text x="1320.0" y="537.0" text-anchor="middle" font-size="13" fill="#333" font-weight="400">Crianza y faenamiento de pollo:</text><text x="1320.0" y="554.0" text-anchor="middle" font-size="13" fill="#333" font-weight="400">granja, proceso y transporte</text><path d="M1320.0,590 L1320.0,610" stroke="#555" stroke-width="2" fill="none"/><rect x="1194" y="610" width="252" height="84" rx="12" fill="#eaf1dc" stroke="#6f8f2a" stroke-width="2.2"/><text x="1320.0" y="633.25" text-anchor="middle" font-weight="700" font-size="14.5" fill="#1b2a41">Jefe de granja</text><text x="1320.0" y="649.75" text-anchor="middle" font-size="12" fill="#333" font-weight="400">Holger Tipán</text><text x="1320.0" y="665.75" text-anchor="middle" font-size="12" fill="#333" font-weight="400">Coordinación de la granja,</text><text x="1320.0" y="681.75" text-anchor="middle" font-size="12" fill="#333" font-weight="400">bioseguridad y personal</text><path d="M1320.0,694 L1320.0,714" stroke="#555" stroke-width="2" fill="none"/><rect x="1194" y="714" width="252" height="84" rx="12" fill="#fff7d6" stroke="#d08a00" stroke-width="2.2" stroke-dasharray="7 5"/><text x="1320.0" y="737.25" text-anchor="middle" font-weight="700" font-size="14.5" fill="#1b2a41">Galponero y asistente de granja</text><text x="1320.0" y="753.75" text-anchor="middle" font-size="12" fill="#b06a00" font-weight="700">Por designar</text><text x="1320.0" y="769.75" text-anchor="middle" font-size="12" fill="#333" font-weight="400">Cuidado de aves,</text><text x="1320.0" y="785.75" text-anchor="middle" font-size="12" fill="#333" font-weight="400">alimentación y registros</text><path d="M1320.0,798 L1320.0,818" stroke="#555" stroke-width="2" fill="none"/><rect x="1194" y="818" width="252" height="84" rx="12" fill="#fff7d6" stroke="#d08a00" stroke-width="2.2" stroke-dasharray="7 5"/><text x="1320.0" y="841.25" text-anchor="middle" font-weight="700" font-size="14.5" fill="#1b2a41">Faenadores y preparados</text><text x="1320.0" y="857.75" text-anchor="middle" font-size="12" fill="#b06a00" font-weight="700">Por designar</text><text x="1320.0" y="873.75" text-anchor="middle" font-size="12" fill="#333" font-weight="400">Faenado, proceso y</text><text x="1320.0" y="889.75" text-anchor="middle" font-size="12" fill="#333" font-weight="400">empaque del pollo</text><path d="M1320.0,902 L1320.0,922" stroke="#555" stroke-width="2" fill="none"/><rect x="1194" y="922" width="252" height="84" rx="12" fill="#fff7d6" stroke="#d08a00" stroke-width="2.2" stroke-dasharray="7 5"/><text x="1320.0" y="945.25" text-anchor="middle" font-weight="700" font-size="14.5" fill="#1b2a41">Choferes de producción</text><text x="1320.0" y="961.75" text-anchor="middle" font-size="12" fill="#b06a00" font-weight="700">Por designar</text><text x="1320.0" y="977.75" text-anchor="middle" font-size="12" fill="#333" font-weight="400">Traslado, refrigerado</text><text x="1320.0" y="993.75" text-anchor="middle" font-size="12" fill="#333" font-weight="400">y entrega del pollo</text><path d="M1606.0,444 L1606.0,470" stroke="#555" stroke-width="2" fill="none"/><rect x="1470" y="470" width="272" height="120" rx="12" fill="#e3f4f4" stroke="#2a8c8c" stroke-width="2.2"/><text x="1606.0" y="510.5" text-anchor="middle" font-weight="700" font-size="16" fill="#1b2a41">ADMINISTRACIÓN Y FINANZAS</text><text x="1606.0" y="528.5" text-anchor="middle" font-size="13" fill="#333" font-weight="400">Martha Hidalgo</text><text x="1606.0" y="545.5" text-anchor="middle" font-size="13" fill="#333" font-weight="400">Jefa financiera</text><text x="1606.0" y="562.5" text-anchor="middle" font-size="13" fill="#333" font-weight="400">Servicios administrativos y de apoyo</text><path d="M1606.0,590 L1606.0,610" stroke="#555" stroke-width="2" fill="none"/><rect x="1480" y="610" width="252" height="84" rx="12" fill="#e3f4f4" stroke="#2a8c8c" stroke-width="2.2"/><text x="1606.0" y="641.25" text-anchor="middle" font-weight="700" font-size="14.5" fill="#1b2a41">Contabilidad</text><text x="1606.0" y="657.75" text-anchor="middle" font-size="12" fill="#333" font-weight="400">Contadora general, 2 jefaturas</text><text x="1606.0" y="673.75" text-anchor="middle" font-size="12" fill="#333" font-weight="400">y 7 puestos de equipo</text><rect x="1504" y="704" width="224" height="40" rx="12" fill="#fff" stroke="#2a8c8c" stroke-width="2.2"/><text x="1616.0" y="720.75" text-anchor="middle" font-weight="700" font-size="12.5" fill="#1b2a41">Contadora general</text><text x="1616.0" y="735.25" text-anchor="middle" font-size="11" fill="#333" font-weight="400">Verónica Teneda</text><rect x="1504" y="752" width="224" height="40" rx="12" fill="#fff" stroke="#2a8c8c" stroke-width="2.2"/><text x="1616.0" y="768.75" text-anchor="middle" font-weight="700" font-size="12.5" fill="#1b2a41">Jefatura contable</text><text x="1616.0" y="783.25" text-anchor="middle" font-size="11" fill="#333" font-weight="400">Martha Ramírez</text><rect x="1522" y="800" width="206" height="73" rx="12" fill="#fff" stroke="#2a8c8c" stroke-width="2.2"/><text x="1625.0" y="818.25" text-anchor="middle" font-weight="700" font-size="12.5" fill="#1b2a41">Técnico contable</text><text x="1625.0" y="832.75" text-anchor="middle" font-size="11" fill="#333" font-weight="400">Cajas, transferencias y</text><text x="1625.0" y="847.75" text-anchor="middle" font-size="11" fill="#333" font-weight="400">gastos bancarios</text><text x="1625.0" y="862.75" text-anchor="middle" font-size="11" fill="#333" font-weight="400">Andrés Mera</text><rect x="1522" y="881" width="206" height="58" rx="12" fill="#fff" stroke="#2a8c8c" stroke-width="2.2"/><text x="1625.0" y="899.25" text-anchor="middle" font-weight="700" font-size="12.5" fill="#1b2a41">Técnico contable</text><text x="1625.0" y="913.75" text-anchor="middle" font-size="11" fill="#333" font-weight="400">Proceso general de cajas</text><text x="1625.0" y="928.75" text-anchor="middle" font-size="11" fill="#333" font-weight="400">David Eugenio</text><rect x="1522" y="947" width="206" height="73" rx="12" fill="#fff" stroke="#2a8c8c" stroke-width="2.2"/><text x="1625.0" y="965.25" text-anchor="middle" font-weight="700" font-size="12.5" fill="#1b2a41">Técnico contable</text><text x="1625.0" y="979.75" text-anchor="middle" font-size="11" fill="#333" font-weight="400">Ingreso de facturas y</text><text x="1625.0" y="994.75" text-anchor="middle" font-size="11" fill="#333" font-weight="400">notas de crédito</text><text x="1625.0" y="1009.75" text-anchor="middle" font-size="11" fill="#333" font-weight="400">Byron Torres</text><rect x="1522" y="1028" width="206" height="58" rx="12" fill="#fff" stroke="#2a8c8c" stroke-width="2.2"/><text x="1625.0" y="1046.25" text-anchor="middle" font-weight="700" font-size="12.5" fill="#1b2a41">Técnico contable</text><text x="1625.0" y="1060.75" text-anchor="middle" font-size="11" fill="#333" font-weight="400">Efectivizaciones</text><text x="1625.0" y="1075.75" text-anchor="middle" font-size="11" fill="#333" font-weight="400">Michelle Padilla</text><rect x="1504" y="1094" width="224" height="40" rx="12" fill="#fff" stroke="#2a8c8c" stroke-width="2.2"/><text x="1616.0" y="1110.75" text-anchor="middle" font-weight="700" font-size="12.5" fill="#1b2a41">Jefatura de inventarios</text><text x="1616.0" y="1125.25" text-anchor="middle" font-size="11" fill="#333" font-weight="400">Paulina Gamboa</text><rect x="1522" y="1142" width="206" height="58" rx="12" fill="#fff" stroke="#2a8c8c" stroke-width="2.2"/><text x="1625.0" y="1160.25" text-anchor="middle" font-weight="700" font-size="12.5" fill="#1b2a41">Asistente contable</text><text x="1625.0" y="1174.75" text-anchor="middle" font-size="11" fill="#333" font-weight="400">Ingreso de facturas</text><text x="1625.0" y="1189.75" text-anchor="middle" font-size="11" fill="#333" font-weight="400">Joel Izurieta</text><rect x="1522" y="1208" width="206" height="58" rx="12" fill="#fff" stroke="#2a8c8c" stroke-width="2.2"/><text x="1625.0" y="1226.25" text-anchor="middle" font-weight="700" font-size="12.5" fill="#1b2a41">Asistente contable</text><text x="1625.0" y="1240.75" text-anchor="middle" font-size="11" fill="#333" font-weight="400">Creación de productos</text><text x="1625.0" y="1255.75" text-anchor="middle" font-size="11" fill="#333" font-weight="400">Diego Bonilla</text><rect x="1522" y="1274" width="206" height="58" rx="12" fill="#fff" stroke="#2a8c8c" stroke-width="2.2"/><text x="1625.0" y="1292.25" text-anchor="middle" font-weight="700" font-size="12.5" fill="#1b2a41">Asistente contable</text><text x="1625.0" y="1306.75" text-anchor="middle" font-size="11" fill="#333" font-weight="400">Ingreso de facturas</text><text x="1625.0" y="1321.75" text-anchor="middle" font-size="11" fill="#333" font-weight="400">Sebastian Flores</text><path d="M1492,694 L1492,1114.0" stroke="#555" stroke-width="2" fill="none"/><path d="M1492,724.0 L1504,724.0" stroke="#555" stroke-width="2" fill="none"/><path d="M1492,772.0 L1504,772.0" stroke="#555" stroke-width="2" fill="none"/><path d="M1492,1114.0 L1504,1114.0" stroke="#555" stroke-width="2" fill="none"/><path d="M1516,792 L1516,1057.0" stroke="#555" stroke-width="2" fill="none"/><path d="M1516,836.5 L1522,836.5" stroke="#555" stroke-width="2" fill="none"/><path d="M1516,910.0 L1522,910.0" stroke="#555" stroke-width="2" fill="none"/><path d="M1516,983.5 L1522,983.5" stroke="#555" stroke-width="2" fill="none"/><path d="M1516,1057.0 L1522,1057.0" stroke="#555" stroke-width="2" fill="none"/><path d="M1516,1134 L1516,1303.0" stroke="#555" stroke-width="2" fill="none"/><path d="M1516,1171.0 L1522,1171.0" stroke="#555" stroke-width="2" fill="none"/><path d="M1516,1237.0 L1522,1237.0" stroke="#555" stroke-width="2" fill="none"/><path d="M1516,1303.0 L1522,1303.0" stroke="#555" stroke-width="2" fill="none"/><path d="M1606.0,1342 L1606.0,1362" stroke="#555" stroke-width="2" fill="none"/><rect x="1480" y="1362" width="252" height="84" rx="12" fill="#e3f4f4" stroke="#2a8c8c" stroke-width="2.2"/><text x="1606.0" y="1393.25" text-anchor="middle" font-weight="700" font-size="14.5" fill="#1b2a41">Tesorería</text><text x="1606.0" y="1409.75" text-anchor="middle" font-size="12" fill="#333" font-weight="400">Grace Aldaz</text><text x="1606.0" y="1425.75" text-anchor="middle" font-size="12" fill="#333" font-weight="400">Cobros, pagos y bancos</text><path d="M1606.0,1446 L1606.0,1466" stroke="#555" stroke-width="2" fill="none"/><rect x="1480" y="1466" width="252" height="84" rx="12" fill="#e3f4f4" stroke="#2a8c8c" stroke-width="2.2"/><text x="1606.0" y="1497.25" text-anchor="middle" font-weight="700" font-size="14.5" fill="#1b2a41">Sistemas</text><text x="1606.0" y="1513.75" text-anchor="middle" font-size="12" fill="#333" font-weight="400">Ing. Jaime Pinela</text><text x="1606.0" y="1529.75" text-anchor="middle" font-size="12" fill="#333" font-weight="400">Soporte tecnológico y redes</text><path d="M1606.0,1550 L1606.0,1570" stroke="#555" stroke-width="2" fill="none"/><rect x="1480" y="1570" width="252" height="84" rx="12" fill="#e3f4f4" stroke="#2a8c8c" stroke-width="2.2"/><text x="1606.0" y="1601.25" text-anchor="middle" font-weight="700" font-size="14.5" fill="#1b2a41">Mant., seguridad y limpieza</text><text x="1606.0" y="1617.75" text-anchor="middle" font-size="12" fill="#333" font-weight="400">Mantenimiento, seguridad</text><text x="1606.0" y="1633.75" text-anchor="middle" font-size="12" fill="#333" font-weight="400">y limpieza de instalaciones</text><path d="M1235.0,373 L1892.0,373" stroke="#555" stroke-width="2" fill="none" stroke-dasharray="7 5"/><path d="M1892.0,373 L1892.0,470" stroke="#555" stroke-width="2" fill="none" stroke-dasharray="7 5"/><text x="1563.5" y="365" text-anchor="middle" font-size="12" font-weight="400" fill="#555">Apoyo transversal a todas las áreas</text><rect x="1756" y="470" width="272" height="120" rx="12" fill="#fde8f1" stroke="#c0478a" stroke-width="2.2"/><text x="1892.0" y="510.5" text-anchor="middle" font-weight="700" font-size="16" fill="#1b2a41">TALENTO HUMANO</text><text x="1892.0" y="528.5" text-anchor="middle" font-size="13" fill="#333" font-weight="400">Fernanda Teneda</text><text x="1892.0" y="545.5" text-anchor="middle" font-size="13" fill="#333" font-weight="400">Jefa de Talento Humano</text><text x="1892.0" y="562.5" text-anchor="middle" font-size="13" fill="#333" font-weight="400">Personal de todas las unidades</text><path d="M1892.0,590 L1892.0,610" stroke="#555" stroke-width="2" fill="none"/><rect x="1766" y="610" width="252" height="84" rx="12" fill="#fde8f1" stroke="#c0478a" stroke-width="2.2"/><text x="1892.0" y="641.25" text-anchor="middle" font-weight="700" font-size="14.5" fill="#1b2a41">Selección y contratación</text><text x="1892.0" y="657.75" text-anchor="middle" font-size="12" fill="#333" font-weight="400">Fernanda Teneda</text><text x="1892.0" y="673.75" text-anchor="middle" font-size="12" fill="#333" font-weight="400">Reclutamiento e ingreso de personal</text><path d="M1892.0,694 L1892.0,714" stroke="#555" stroke-width="2" fill="none"/><rect x="1766" y="714" width="252" height="84" rx="12" fill="#fde8f1" stroke="#c0478a" stroke-width="2.2"/><text x="1892.0" y="745.25" text-anchor="middle" font-weight="700" font-size="14.5" fill="#1b2a41">Nómina y beneficios</text><text x="1892.0" y="761.75" text-anchor="middle" font-size="12" fill="#333" font-weight="400">Fernanda Teneda</text><text x="1892.0" y="777.75" text-anchor="middle" font-size="12" fill="#333" font-weight="400">Pago de personal y beneficios</text><path d="M1892.0,798 L1892.0,818" stroke="#555" stroke-width="2" fill="none"/><rect x="1766" y="818" width="252" height="84" rx="12" fill="#fde8f1" stroke="#c0478a" stroke-width="2.2"/><text x="1892.0" y="849.25" text-anchor="middle" font-weight="700" font-size="14.5" fill="#1b2a41">Capacitación y desarrollo</text><text x="1892.0" y="865.75" text-anchor="middle" font-size="12" fill="#333" font-weight="400">Fernanda Teneda</text><text x="1892.0" y="881.75" text-anchor="middle" font-size="12" fill="#333" font-weight="400">Formación y clima laboral</text><path d="M1892.0,902 L1892.0,922" stroke="#555" stroke-width="2" fill="none"/><rect x="1766" y="922" width="252" height="84" rx="12" fill="#fff7d6" stroke="#d08a00" stroke-width="2.2" stroke-dasharray="7 5"/><text x="1892.0" y="953.25" text-anchor="middle" font-weight="700" font-size="14.5" fill="#1b2a41">Asistente del departamento</text><text x="1892.0" y="969.75" text-anchor="middle" font-size="12" fill="#b06a00" font-weight="700">Por designar</text><text x="1892.0" y="985.75" text-anchor="middle" font-size="12" fill="#333" font-weight="400">Apoyo administrativo a Talento Humano</text><path d="M176.0,444 L1606.0,444" stroke="#555" stroke-width="2" fill="none"/><rect x="40" y="1694" width="760" height="70" rx="12" fill="#fafafa" stroke="#999" stroke-width="2.2"/><text x="420.0" y="1734.0" text-anchor="middle" font-weight="700" font-size="14" fill="#1b2a41"></text><text x="420" y="1714" text-anchor="middle" font-size="14" font-weight="700" fill="#333">SIMBOLOGÍA</text><path d="M60,1740 L110,1740" stroke="#555" stroke-width="2" fill="none"/><text x="118" y="1745" text-anchor="start" font-size="13" font-weight="400" fill="#333">Línea de autoridad</text><path d="M270,1740 L320,1740" stroke="#555" stroke-width="2" fill="none" stroke-dasharray="7 5"/><text x="328" y="1745" text-anchor="start" font-size="13" font-weight="400" fill="#333">Asesoría / apoyo transversal</text><rect x="590" y="1730" width="34" height="20" rx="4" fill="#fff7d6" stroke="#d08a00" stroke-width="2" stroke-dasharray="5 3"/><text x="632" y="1745" text-anchor="start" font-size="13" font-weight="400" fill="#333">Por designar</text><text x="40" y="1684" text-anchor="start" font-size="12" font-weight="400" fill="#333">(*) Apellido por confirmar</text><rect x="840" y="1694" width="920" height="70" rx="12" fill="#eef4fb" stroke="#3b6cb7" stroke-width="2.2"/><text x="1300.0" y="1725.5" text-anchor="middle" font-weight="700" font-size="14" fill="#1b2a41">PROPÓSITO</text><text x="1300.0" y="1741.5" text-anchor="middle" font-size="13" fill="#333" font-weight="400">Brindar a nuestros clientes productos de calidad, con excelente servicio y los mejores precios.</text></svg>